<svg xmlns="http://www.w3.org/2000/svg" xmlns:xlink="http://www.w3.org/1999/xlink" width="1024" zoomAndPan="magnify" viewBox="0 0 768 767.999994" height="1024" preserveAspectRatio="xMidYMid meet" version="1.0"><defs><clipPath id="f3abdfea4b"><path d="M 106 76.800781 L 662 76.800781 L 662 658.800781 L 106 658.800781 Z M 106 76.800781 " clip-rule="nonzero"/></clipPath><clipPath id="12d3be0acc"><path d="M 18.746094 320 L 82 320 L 82 522 L 18.746094 522 Z M 18.746094 320 " clip-rule="nonzero"/></clipPath><clipPath id="d3c860191c"><path d="M 685 319 L 749.246094 319 L 749.246094 522 L 685 522 Z M 685 319 " clip-rule="nonzero"/></clipPath><clipPath id="b5bac289c0"><path d="M 339.652344 235.839844 L 428.347656 235.839844 L 428.347656 329.59375 L 339.652344 329.59375 Z M 339.652344 235.839844 " clip-rule="nonzero"/></clipPath></defs><g clip-path="url(#f3abdfea4b)"><path fill="#a2845e" d="M 538.273438 658.417969 L 229.296875 658.417969 C 161.253906 658.417969 106.046875 603.214844 106.046875 535.597656 L 106.046875 335.320312 C 106.046875 267.277344 161.253906 212.074219 229.296875 212.074219 L 370.519531 212.074219 L 370.945312 165 C 352.542969 159.433594 338.851562 142.316406 338.851562 121.777344 C 338.851562 96.957031 359.390625 76.84375 384.210938 76.84375 C 409.03125 76.84375 429.574219 96.957031 429.574219 121.777344 C 429.574219 142.316406 415.453125 159.863281 396.621094 165.425781 L 396.195312 212.074219 L 538.273438 212.074219 C 605.886719 212.074219 661.089844 267.277344 661.089844 335.320312 L 661.089844 536.027344 C 661.089844 603.640625 605.886719 658.417969 538.273438 658.417969 Z M 267.8125 464.132812 C 231.4375 464.132812 202.765625 435.460938 202.765625 399.511719 C 202.765625 363.136719 231.4375 334.464844 267.8125 334.464844 C 304.1875 334.464844 332.429688 363.136719 332.429688 399.511719 C 332.429688 435.460938 304.1875 464.132812 267.8125 464.132812 Z M 267.8125 360.140625 C 245.558594 360.140625 228.441406 377.257812 228.441406 399.511719 C 228.441406 421.335938 245.558594 438.453125 267.8125 438.453125 C 289.636719 438.453125 307.183594 421.335938 307.183594 399.511719 C 307.183594 377.257812 289.636719 360.140625 267.8125 360.140625 Z M 500.183594 461.5625 C 463.808594 461.5625 434.710938 432.464844 434.710938 396.515625 C 434.710938 360.570312 463.808594 331.46875 500.183594 331.46875 C 535.703125 331.46875 564.804688 360.570312 564.804688 396.515625 C 564.804688 432.464844 535.703125 461.5625 500.183594 461.5625 Z M 500.183594 357.144531 C 477.929688 357.144531 460.386719 375.117188 460.386719 396.515625 C 460.386719 418.339844 477.929688 436.316406 500.183594 436.316406 C 522.007812 436.316406 539.128906 418.339844 539.128906 396.515625 C 539.128906 374.261719 521.582031 357.144531 500.183594 357.144531 Z M 379.078125 539.449219 C 354.683594 539.449219 333.285156 527.894531 321.304688 517.625 C 315.742188 512.917969 315.3125 504.359375 320.019531 499.652344 C 324.726562 494.515625 332.429688 493.660156 337.992188 498.792969 C 341.84375 502.21875 379.078125 531.746094 414.597656 499.222656 C 419.730469 494.515625 427.433594 494.515625 432.996094 499.652344 C 437.703125 505.214844 437.703125 512.917969 432.570312 518.050781 C 414.597656 533.457031 396.195312 539.449219 379.078125 539.449219 Z M 379.078125 539.449219 " fill-opacity="1" fill-rule="evenodd"/></g><g clip-path="url(#12d3be0acc)"><path fill="#a2845e" d="M 80.371094 521.046875 L 75.238281 521.046875 C 44.425781 521.046875 18.746094 495.800781 18.746094 464.558594 L 18.746094 377.257812 C 18.746094 346.019531 44.425781 320.34375 75.238281 320.34375 L 81.226562 320.34375 C 80.800781 325.050781 80.371094 330.183594 80.371094 335.320312 Z M 80.371094 521.046875 " fill-opacity="1" fill-rule="evenodd"/></g><g clip-path="url(#d3c860191c)"><path fill="#a2845e" d="M 691.902344 521.046875 L 686.769531 521.046875 L 686.769531 335.320312 C 686.769531 329.757812 686.339844 324.621094 685.914062 319.914062 L 691.902344 319.914062 C 723.570312 319.914062 749.246094 345.164062 749.246094 376.832031 L 749.246094 464.558594 C 749.246094 496.226562 723.570312 521.046875 691.902344 521.046875 Z M 691.902344 521.046875 " fill-opacity="1" fill-rule="evenodd"/></g><g clip-path="url(#b5bac289c0)"><path fill="#a2845e" d="M 339.652344 235.839844 L 428.347656 235.839844 L 428.347656 329.730469 L 339.652344 329.730469 Z M 339.652344 235.839844 " fill-opacity="1" fill-rule="nonzero"/></g></svg>